<mxfile host="app.diagrams.net" modified="2023-04-20T02:26:32.512Z" agent="Mozilla/5.0 (Windows NT 10.0; Win64; x64) AppleWebKit/537.36 (KHTML, like Gecko) Chrome/112.0.0.0 Safari/537.36" etag="UNaAG_A54QUeJWnOE6mz" version="21.1.9" type="github">
  <diagram name="第 1 页" id="6jC9SdL7d2CUVXCiat28">
    <mxGraphModel dx="900" dy="454" grid="1" gridSize="10" guides="1" tooltips="1" connect="1" arrows="1" fold="1" page="1" pageScale="1" pageWidth="827" pageHeight="1169" math="0" shadow="0">
      <root>
        <mxCell id="0" />
        <mxCell id="1" parent="0" />
        <mxCell id="VB6SmdvYTiruJXVyQcsZ-1" value="用户信息表" style="rounded=1;whiteSpace=wrap;html=1;" vertex="1" parent="1">
          <mxGeometry x="320" y="320" width="300" height="60" as="geometry" />
        </mxCell>
        <mxCell id="VB6SmdvYTiruJXVyQcsZ-4" style="rounded=0;orthogonalLoop=1;jettySize=auto;html=1;exitX=1;exitY=0.5;exitDx=0;exitDy=0;entryX=0;entryY=0;entryDx=0;entryDy=0;" edge="1" parent="1" source="VB6SmdvYTiruJXVyQcsZ-2" target="VB6SmdvYTiruJXVyQcsZ-1">
          <mxGeometry relative="1" as="geometry" />
        </mxCell>
        <mxCell id="VB6SmdvYTiruJXVyQcsZ-2" value="索引" style="ellipse;whiteSpace=wrap;html=1;direction=south;" vertex="1" parent="1">
          <mxGeometry x="120" y="80" width="50" height="100" as="geometry" />
        </mxCell>
        <mxCell id="VB6SmdvYTiruJXVyQcsZ-27" style="rounded=0;orthogonalLoop=1;jettySize=auto;html=1;exitX=1;exitY=0.5;exitDx=0;exitDy=0;entryX=0.1;entryY=-0.083;entryDx=0;entryDy=0;entryPerimeter=0;" edge="1" parent="1" source="VB6SmdvYTiruJXVyQcsZ-6" target="VB6SmdvYTiruJXVyQcsZ-1">
          <mxGeometry relative="1" as="geometry" />
        </mxCell>
        <mxCell id="VB6SmdvYTiruJXVyQcsZ-6" value="用户名&lt;span style=&quot;white-space: pre;&quot;&gt;	&lt;/span&gt;" style="ellipse;whiteSpace=wrap;html=1;direction=south;" vertex="1" parent="1">
          <mxGeometry x="190" y="80" width="50" height="100" as="geometry" />
        </mxCell>
        <mxCell id="VB6SmdvYTiruJXVyQcsZ-28" style="rounded=0;orthogonalLoop=1;jettySize=auto;html=1;exitX=1;exitY=0.5;exitDx=0;exitDy=0;entryX=0.195;entryY=-0.083;entryDx=0;entryDy=0;entryPerimeter=0;" edge="1" parent="1" source="VB6SmdvYTiruJXVyQcsZ-7" target="VB6SmdvYTiruJXVyQcsZ-1">
          <mxGeometry relative="1" as="geometry" />
        </mxCell>
        <mxCell id="VB6SmdvYTiruJXVyQcsZ-7" value="手机号" style="ellipse;whiteSpace=wrap;html=1;direction=south;" vertex="1" parent="1">
          <mxGeometry x="260" y="80" width="50" height="100" as="geometry" />
        </mxCell>
        <mxCell id="VB6SmdvYTiruJXVyQcsZ-29" style="rounded=0;orthogonalLoop=1;jettySize=auto;html=1;exitX=1;exitY=0.5;exitDx=0;exitDy=0;entryX=0.31;entryY=0.067;entryDx=0;entryDy=0;entryPerimeter=0;" edge="1" parent="1" source="VB6SmdvYTiruJXVyQcsZ-8" target="VB6SmdvYTiruJXVyQcsZ-1">
          <mxGeometry relative="1" as="geometry" />
        </mxCell>
        <mxCell id="VB6SmdvYTiruJXVyQcsZ-8" value="密码" style="ellipse;whiteSpace=wrap;html=1;direction=south;" vertex="1" parent="1">
          <mxGeometry x="340" y="80" width="50" height="100" as="geometry" />
        </mxCell>
        <mxCell id="VB6SmdvYTiruJXVyQcsZ-30" style="rounded=0;orthogonalLoop=1;jettySize=auto;html=1;exitX=1;exitY=0.5;exitDx=0;exitDy=0;entryX=0.5;entryY=0;entryDx=0;entryDy=0;" edge="1" parent="1" source="VB6SmdvYTiruJXVyQcsZ-9" target="VB6SmdvYTiruJXVyQcsZ-1">
          <mxGeometry relative="1" as="geometry" />
        </mxCell>
        <mxCell id="VB6SmdvYTiruJXVyQcsZ-9" value="性别" style="ellipse;whiteSpace=wrap;html=1;direction=south;" vertex="1" parent="1">
          <mxGeometry x="400" y="80" width="50" height="100" as="geometry" />
        </mxCell>
        <mxCell id="VB6SmdvYTiruJXVyQcsZ-31" style="rounded=0;orthogonalLoop=1;jettySize=auto;html=1;exitX=1;exitY=0.5;exitDx=0;exitDy=0;entryX=0.62;entryY=0.067;entryDx=0;entryDy=0;entryPerimeter=0;" edge="1" parent="1" source="VB6SmdvYTiruJXVyQcsZ-10" target="VB6SmdvYTiruJXVyQcsZ-1">
          <mxGeometry relative="1" as="geometry" />
        </mxCell>
        <mxCell id="VB6SmdvYTiruJXVyQcsZ-10" value="微信号" style="ellipse;whiteSpace=wrap;html=1;direction=south;" vertex="1" parent="1">
          <mxGeometry x="460" y="80" width="50" height="100" as="geometry" />
        </mxCell>
        <mxCell id="VB6SmdvYTiruJXVyQcsZ-34" style="rounded=0;orthogonalLoop=1;jettySize=auto;html=1;exitX=1;exitY=0.5;exitDx=0;exitDy=0;entryX=0.683;entryY=0.1;entryDx=0;entryDy=0;entryPerimeter=0;" edge="1" parent="1" source="VB6SmdvYTiruJXVyQcsZ-12" target="VB6SmdvYTiruJXVyQcsZ-1">
          <mxGeometry relative="1" as="geometry" />
        </mxCell>
        <mxCell id="VB6SmdvYTiruJXVyQcsZ-12" value="区域&lt;br&gt;编号" style="ellipse;whiteSpace=wrap;html=1;direction=south;" vertex="1" parent="1">
          <mxGeometry x="520" y="80" width="50" height="100" as="geometry" />
        </mxCell>
        <mxCell id="VB6SmdvYTiruJXVyQcsZ-35" style="rounded=0;orthogonalLoop=1;jettySize=auto;html=1;exitX=1;exitY=0.5;exitDx=0;exitDy=0;entryX=0.787;entryY=-0.017;entryDx=0;entryDy=0;entryPerimeter=0;" edge="1" parent="1" source="VB6SmdvYTiruJXVyQcsZ-13" target="VB6SmdvYTiruJXVyQcsZ-1">
          <mxGeometry relative="1" as="geometry" />
        </mxCell>
        <mxCell id="VB6SmdvYTiruJXVyQcsZ-13" value="住址" style="ellipse;whiteSpace=wrap;html=1;direction=south;" vertex="1" parent="1">
          <mxGeometry x="580" y="80" width="50" height="100" as="geometry" />
        </mxCell>
        <mxCell id="VB6SmdvYTiruJXVyQcsZ-36" style="rounded=0;orthogonalLoop=1;jettySize=auto;html=1;exitX=1;exitY=0.5;exitDx=0;exitDy=0;entryX=0.877;entryY=-0.083;entryDx=0;entryDy=0;entryPerimeter=0;" edge="1" parent="1" source="VB6SmdvYTiruJXVyQcsZ-14" target="VB6SmdvYTiruJXVyQcsZ-1">
          <mxGeometry relative="1" as="geometry" />
        </mxCell>
        <mxCell id="VB6SmdvYTiruJXVyQcsZ-14" value="注册&lt;br&gt;时间" style="ellipse;whiteSpace=wrap;html=1;direction=south;" vertex="1" parent="1">
          <mxGeometry x="640" y="80" width="50" height="100" as="geometry" />
        </mxCell>
        <mxCell id="VB6SmdvYTiruJXVyQcsZ-37" style="rounded=0;orthogonalLoop=1;jettySize=auto;html=1;exitX=1;exitY=0.5;exitDx=0;exitDy=0;entryX=0.953;entryY=-0.033;entryDx=0;entryDy=0;entryPerimeter=0;" edge="1" parent="1" source="VB6SmdvYTiruJXVyQcsZ-15" target="VB6SmdvYTiruJXVyQcsZ-1">
          <mxGeometry relative="1" as="geometry" />
        </mxCell>
        <mxCell id="VB6SmdvYTiruJXVyQcsZ-15" value="账号&lt;br&gt;是否&lt;br&gt;可用" style="ellipse;whiteSpace=wrap;html=1;direction=south;" vertex="1" parent="1">
          <mxGeometry x="710" y="80" width="50" height="100" as="geometry" />
        </mxCell>
      </root>
    </mxGraphModel>
  </diagram>
</mxfile>
